<?xml version="1.0" encoding="UTF-8"?>
<svg xmlns="http://www.w3.org/2000/svg" xmlns:xlink="http://www.w3.org/1999/xlink" width="42px" height="42px" viewBox="0 0 42 42" version="1.1">
<g id="surface1">
<path style=" stroke:none;fill-rule:nonzero;fill:rgb(21.176471%,60.392159%,66.274512%);fill-opacity:1;" d="M 15.628906 2.929688 C 19.171875 2.929688 22.71875 2.929688 26.371094 2.929688 C 26.371094 3.253906 26.371094 3.574219 26.371094 3.90625 C 26.695312 3.90625 27.015625 3.90625 27.347656 3.90625 C 27.347656 4.230469 27.347656 4.550781 27.347656 4.882812 C 28.316406 4.882812 29.28125 4.882812 30.277344 4.882812 C 30.277344 5.207031 30.277344 5.527344 30.277344 5.859375 C 30.921875 5.859375 31.570312 5.859375 32.234375 5.859375 C 32.234375 6.183594 32.234375 6.503906 32.234375 6.835938 C 32.554688 6.835938 32.878906 6.835938 33.210938 6.835938 C 33.210938 7.160156 33.210938 7.480469 33.210938 7.8125 C 33.53125 7.8125 33.855469 7.8125 34.1875 7.8125 C 34.1875 8.136719 34.1875 8.457031 34.1875 8.789062 C 34.832031 8.789062 35.476562 8.789062 36.140625 8.789062 C 36.140625 9.113281 36.140625 9.433594 36.140625 9.765625 C 35.171875 9.765625 34.207031 9.765625 33.210938 9.765625 C 33.210938 10.089844 33.210938 10.410156 33.210938 10.746094 C 33.855469 10.746094 34.5 10.746094 35.164062 10.746094 C 35.164062 11.066406 35.164062 11.390625 35.164062 11.722656 C 34.839844 11.722656 34.519531 11.722656 34.1875 11.722656 C 34.1875 12.042969 34.1875 12.367188 34.1875 12.699219 C 33.863281 12.699219 33.542969 12.699219 33.210938 12.699219 C 33.210938 13.019531 33.210938 13.34375 33.210938 13.675781 C 33.53125 13.675781 33.855469 13.675781 34.1875 13.675781 C 34.1875 13.996094 34.1875 14.320312 34.1875 14.652344 C 34.507812 14.652344 34.832031 14.652344 35.164062 14.652344 C 35.164062 14.972656 35.164062 15.296875 35.164062 15.628906 C 34.519531 15.628906 33.875 15.628906 33.210938 15.628906 C 33.210938 16.273438 33.210938 16.917969 33.210938 17.582031 C 33.53125 17.582031 33.855469 17.582031 34.1875 17.582031 C 34.1875 17.902344 34.1875 18.226562 34.1875 18.558594 C 33.542969 18.558594 32.898438 18.558594 32.234375 18.558594 C 32.234375 20.492188 32.234375 22.425781 32.234375 24.417969 C 30.621094 24.417969 29.007812 24.417969 27.347656 24.417969 C 27.347656 26.351562 27.347656 28.285156 27.347656 30.277344 C 29.605469 30.277344 31.863281 30.277344 34.1875 30.277344 C 34.1875 30.921875 34.1875 31.570312 34.1875 32.234375 C 35.152344 32.234375 36.121094 32.234375 37.117188 32.234375 C 37.117188 35.457031 37.117188 38.679688 37.117188 42 C 26.15625 42 15.199219 42 3.90625 42 C 3.90625 38.777344 3.90625 35.554688 3.90625 32.234375 C 4.875 32.234375 5.839844 32.234375 6.835938 32.234375 C 6.835938 31.589844 6.835938 30.941406 6.835938 30.277344 C 7.480469 30.277344 8.125 30.277344 8.789062 30.277344 C 8.789062 27.054688 8.789062 23.832031 8.789062 20.511719 C 9.113281 20.511719 9.433594 20.511719 9.765625 20.511719 C 9.765625 16.644531 9.765625 12.777344 9.765625 8.789062 C 10.089844 8.789062 10.410156 8.789062 10.746094 8.789062 C 10.746094 8.144531 10.746094 7.5 10.746094 6.835938 C 11.066406 6.835938 11.390625 6.835938 11.722656 6.835938 C 11.722656 6.191406 11.722656 5.546875 11.722656 4.882812 C 12.367188 4.882812 13.011719 4.882812 13.675781 4.882812 C 13.675781 4.5625 13.675781 4.238281 13.675781 3.90625 C 14.320312 3.90625 14.964844 3.90625 15.628906 3.90625 C 15.628906 3.585938 15.628906 3.261719 15.628906 2.929688 Z M 15.628906 2.929688 "/>
<path style=" stroke:none;fill-rule:nonzero;fill:rgb(92.54902%,80.000001%,63.529414%);fill-opacity:1;" d="M 19.535156 8.789062 C 20.824219 8.789062 22.113281 8.789062 23.441406 8.789062 C 23.441406 9.113281 23.441406 9.433594 23.441406 9.765625 C 23.765625 9.765625 24.085938 9.765625 24.417969 9.765625 C 24.417969 10.089844 24.417969 10.410156 24.417969 10.746094 C 24.742188 10.746094 25.0625 10.746094 25.394531 10.746094 C 25.394531 11.066406 25.394531 11.390625 25.394531 11.722656 C 25.71875 11.722656 26.039062 11.722656 26.371094 11.722656 C 26.371094 12.042969 26.371094 12.367188 26.371094 12.699219 C 26.695312 12.699219 27.015625 12.699219 27.347656 12.699219 C 27.347656 12.375 27.347656 12.054688 27.347656 11.722656 C 27.671875 11.722656 27.992188 11.722656 28.324219 11.722656 C 28.324219 12.042969 28.324219 12.367188 28.324219 12.699219 C 28.648438 12.699219 28.96875 12.699219 29.300781 12.699219 C 29.300781 13.019531 29.300781 13.34375 29.300781 13.675781 C 29.625 13.675781 29.945312 13.675781 30.277344 13.675781 C 30.277344 14.640625 30.277344 15.609375 30.277344 16.605469 C 30.601562 16.605469 30.921875 16.605469 31.253906 16.605469 C 31.253906 17.25 31.253906 17.894531 31.253906 18.558594 C 31.578125 18.558594 31.902344 18.558594 32.234375 18.558594 C 32.234375 20.492188 32.234375 22.425781 32.234375 24.417969 C 30.621094 24.417969 29.007812 24.417969 27.347656 24.417969 C 27.347656 27.964844 27.347656 31.511719 27.347656 35.164062 C 24.449219 35.164062 21.546875 35.164062 18.558594 35.164062 C 18.558594 34.195312 18.558594 33.230469 18.558594 32.234375 C 17.589844 32.234375 16.625 32.234375 15.628906 32.234375 C 15.628906 31.589844 15.628906 30.941406 15.628906 30.277344 C 14.984375 30.277344 14.339844 30.277344 13.675781 30.277344 C 13.675781 27.699219 13.675781 25.121094 13.675781 22.464844 C 13.996094 22.464844 14.320312 22.464844 14.652344 22.464844 C 14.652344 21.820312 14.652344 21.175781 14.652344 20.511719 C 14.972656 20.511719 15.296875 20.511719 15.628906 20.511719 C 15.628906 19.867188 15.628906 19.222656 15.628906 18.558594 C 15.949219 18.558594 16.273438 18.558594 16.605469 18.558594 C 16.605469 18.878906 16.605469 19.203125 16.605469 19.535156 C 16.925781 19.535156 17.25 19.535156 17.582031 19.535156 C 17.582031 19.855469 17.582031 20.179688 17.582031 20.511719 C 17.902344 20.511719 18.226562 20.511719 18.558594 20.511719 C 18.558594 19.542969 18.558594 18.578125 18.558594 17.582031 C 18.234375 17.582031 17.914062 17.582031 17.582031 17.582031 C 17.582031 16.613281 17.582031 15.648438 17.582031 14.652344 C 17.902344 14.652344 18.226562 14.652344 18.558594 14.652344 C 18.558594 14.007812 18.558594 13.363281 18.558594 12.699219 C 18.234375 12.699219 17.914062 12.699219 17.582031 12.699219 C 17.582031 11.730469 17.582031 10.765625 17.582031 9.765625 C 18.226562 9.765625 18.871094 9.765625 19.535156 9.765625 C 19.535156 9.445312 19.535156 9.121094 19.535156 8.789062 Z M 19.535156 8.789062 "/>
<path style=" stroke:none;fill-rule:nonzero;fill:rgb(0%,0%,0%);fill-opacity:1;" d="M 15.628906 2.929688 C 19.171875 2.929688 22.71875 2.929688 26.371094 2.929688 C 26.371094 3.253906 26.371094 3.574219 26.371094 3.90625 C 26.695312 3.90625 27.015625 3.90625 27.347656 3.90625 C 27.347656 4.230469 27.347656 4.550781 27.347656 4.882812 C 28.316406 4.882812 29.28125 4.882812 30.277344 4.882812 C 30.277344 5.207031 30.277344 5.527344 30.277344 5.859375 C 30.921875 5.859375 31.570312 5.859375 32.234375 5.859375 C 32.234375 6.183594 32.234375 6.503906 32.234375 6.835938 C 32.554688 6.835938 32.878906 6.835938 33.210938 6.835938 C 33.210938 7.160156 33.210938 7.480469 33.210938 7.8125 C 33.53125 7.8125 33.855469 7.8125 34.1875 7.8125 C 34.1875 8.136719 34.1875 8.457031 34.1875 8.789062 C 34.832031 8.789062 35.476562 8.789062 36.140625 8.789062 C 36.140625 9.113281 36.140625 9.433594 36.140625 9.765625 C 35.171875 9.765625 34.207031 9.765625 33.210938 9.765625 C 33.210938 10.089844 33.210938 10.410156 33.210938 10.746094 C 33.855469 10.746094 34.5 10.746094 35.164062 10.746094 C 35.164062 11.066406 35.164062 11.390625 35.164062 11.722656 C 34.839844 11.722656 34.519531 11.722656 34.1875 11.722656 C 34.1875 12.042969 34.1875 12.367188 34.1875 12.699219 C 33.863281 12.699219 33.542969 12.699219 33.210938 12.699219 C 33.210938 13.019531 33.210938 13.34375 33.210938 13.675781 C 33.53125 13.675781 33.855469 13.675781 34.1875 13.675781 C 34.1875 13.996094 34.1875 14.320312 34.1875 14.652344 C 34.507812 14.652344 34.832031 14.652344 35.164062 14.652344 C 35.164062 14.972656 35.164062 15.296875 35.164062 15.628906 C 34.519531 15.628906 33.875 15.628906 33.210938 15.628906 C 33.210938 16.273438 33.210938 16.917969 33.210938 17.582031 C 33.53125 17.582031 33.855469 17.582031 34.1875 17.582031 C 34.1875 17.902344 34.1875 18.226562 34.1875 18.558594 C 33.21875 18.558594 32.253906 18.558594 31.253906 18.558594 C 31.253906 17.914062 31.253906 17.269531 31.253906 16.605469 C 30.933594 16.605469 30.609375 16.605469 30.277344 16.605469 C 30.277344 15.636719 30.277344 14.671875 30.277344 13.675781 C 29.957031 13.675781 29.632812 13.675781 29.300781 13.675781 C 29.300781 13.351562 29.300781 13.03125 29.300781 12.699219 C 28.980469 12.699219 28.65625 12.699219 28.324219 12.699219 C 28.324219 12.375 28.324219 12.054688 28.324219 11.722656 C 28.003906 11.722656 27.679688 11.722656 27.347656 11.722656 C 27.347656 12.042969 27.347656 12.367188 27.347656 12.699219 C 27.027344 12.699219 26.703125 12.699219 26.371094 12.699219 C 26.371094 12.375 26.371094 12.054688 26.371094 11.722656 C 26.050781 11.722656 25.726562 11.722656 25.394531 11.722656 C 25.394531 11.398438 25.394531 11.078125 25.394531 10.746094 C 25.074219 10.746094 24.75 10.746094 24.417969 10.746094 C 24.417969 10.421875 24.417969 10.097656 24.417969 9.765625 C 24.097656 9.765625 23.773438 9.765625 23.441406 9.765625 C 23.441406 9.445312 23.441406 9.121094 23.441406 8.789062 C 22.152344 8.789062 20.863281 8.789062 19.535156 8.789062 C 19.535156 9.113281 19.535156 9.433594 19.535156 9.765625 C 18.890625 9.765625 18.246094 9.765625 17.582031 9.765625 C 17.582031 10.734375 17.582031 11.703125 17.582031 12.699219 C 17.902344 12.699219 18.226562 12.699219 18.558594 12.699219 C 18.558594 13.34375 18.558594 13.988281 18.558594 14.652344 C 18.234375 14.652344 17.914062 14.652344 17.582031 14.652344 C 17.582031 15.617188 17.582031 16.585938 17.582031 17.582031 C 17.902344 17.582031 18.226562 17.582031 18.558594 17.582031 C 18.558594 18.546875 18.558594 19.515625 18.558594 20.511719 C 18.234375 20.511719 17.914062 20.511719 17.582031 20.511719 C 17.582031 20.1875 17.582031 19.867188 17.582031 19.535156 C 17.257812 19.535156 16.9375 19.535156 16.605469 19.535156 C 16.605469 19.210938 16.605469 18.890625 16.605469 18.558594 C 16.28125 18.558594 15.960938 18.558594 15.628906 18.558594 C 15.628906 19.203125 15.628906 19.847656 15.628906 20.511719 C 15.304688 20.511719 14.984375 20.511719 14.652344 20.511719 C 14.652344 21.15625 14.652344 21.800781 14.652344 22.464844 C 14.328125 22.464844 14.007812 22.464844 13.675781 22.464844 C 13.675781 25.042969 13.675781 27.621094 13.675781 30.277344 C 12.0625 30.277344 10.449219 30.277344 8.789062 30.277344 C 8.789062 27.054688 8.789062 23.832031 8.789062 20.511719 C 9.113281 20.511719 9.433594 20.511719 9.765625 20.511719 C 9.765625 16.644531 9.765625 12.777344 9.765625 8.789062 C 10.089844 8.789062 10.410156 8.789062 10.746094 8.789062 C 10.746094 8.144531 10.746094 7.5 10.746094 6.835938 C 11.066406 6.835938 11.390625 6.835938 11.722656 6.835938 C 11.722656 6.191406 11.722656 5.546875 11.722656 4.882812 C 12.367188 4.882812 13.011719 4.882812 13.675781 4.882812 C 13.675781 4.5625 13.675781 4.238281 13.675781 3.90625 C 14.320312 3.90625 14.964844 3.90625 15.628906 3.90625 C 15.628906 3.585938 15.628906 3.261719 15.628906 2.929688 Z M 15.628906 2.929688 "/>
<path style=" stroke:none;fill-rule:nonzero;fill:rgb(77.64706%,67.058825%,53.333336%);fill-opacity:1;" d="M 18.558594 24.417969 C 21.460938 24.417969 24.359375 24.417969 27.347656 24.417969 C 27.347656 26.351562 27.347656 28.285156 27.347656 30.277344 C 24.449219 30.277344 21.546875 30.277344 18.558594 30.277344 C 18.558594 28.34375 18.558594 26.410156 18.558594 24.417969 Z M 18.558594 24.417969 "/>
<path style=" stroke:none;fill-rule:nonzero;fill:rgb(21.176471%,60.392159%,66.274512%);fill-opacity:1;" d="M 19.535156 37.117188 C 21.792969 37.117188 24.046875 37.117188 26.371094 37.117188 C 26.371094 37.4375 26.371094 37.761719 26.371094 38.09375 C 26.695312 38.09375 27.015625 38.09375 27.347656 38.09375 C 27.347656 39.058594 27.347656 40.027344 27.347656 41.023438 C 27.027344 41.023438 26.703125 41.023438 26.371094 41.023438 C 26.371094 41.34375 26.371094 41.667969 26.371094 42 C 24.117188 42 21.859375 42 19.535156 42 C 19.535156 41.675781 19.535156 41.355469 19.535156 41.023438 C 19.210938 41.023438 18.890625 41.023438 18.558594 41.023438 C 18.558594 40.054688 18.558594 39.089844 18.558594 38.09375 C 18.878906 38.09375 19.203125 38.09375 19.535156 38.09375 C 19.535156 37.769531 19.535156 37.449219 19.535156 37.117188 Z M 19.535156 37.117188 "/>
<path style=" stroke:none;fill-rule:nonzero;fill:rgb(8.627451%,8.627451%,8.627451%);fill-opacity:1;" d="M 19.535156 4.882812 C 19.855469 4.882812 20.179688 4.882812 20.511719 4.882812 C 20.511719 5.527344 20.511719 6.171875 20.511719 6.835938 C 20.832031 6.835938 21.15625 6.835938 21.488281 6.835938 C 21.488281 7.160156 21.488281 7.480469 21.488281 7.8125 C 21.8125 7.8125 22.132812 7.8125 22.464844 7.8125 C 22.464844 7.492188 22.464844 7.167969 22.464844 6.835938 C 22.789062 6.835938 23.109375 6.835938 23.441406 6.835938 C 23.441406 6.515625 23.441406 6.191406 23.441406 5.859375 C 23.765625 5.859375 24.085938 5.859375 24.417969 5.859375 C 24.417969 6.503906 24.417969 7.148438 24.417969 7.8125 C 24.742188 7.8125 25.0625 7.8125 25.394531 7.8125 C 25.394531 8.78125 25.394531 9.746094 25.394531 10.746094 C 25.074219 10.746094 24.75 10.746094 24.417969 10.746094 C 24.417969 10.421875 24.417969 10.097656 24.417969 9.765625 C 24.097656 9.765625 23.773438 9.765625 23.441406 9.765625 C 23.441406 9.445312 23.441406 9.121094 23.441406 8.789062 C 22.152344 8.789062 20.863281 8.789062 19.535156 8.789062 C 19.535156 9.113281 19.535156 9.433594 19.535156 9.765625 C 18.890625 9.765625 18.246094 9.765625 17.582031 9.765625 C 17.582031 10.734375 17.582031 11.703125 17.582031 12.699219 C 17.902344 12.699219 18.226562 12.699219 18.558594 12.699219 C 18.558594 13.34375 18.558594 13.988281 18.558594 14.652344 C 17.914062 14.652344 17.269531 14.652344 16.605469 14.652344 C 16.605469 13.683594 16.605469 12.71875 16.605469 11.722656 C 16.28125 11.722656 15.960938 11.722656 15.628906 11.722656 C 15.628906 11.078125 15.628906 10.429688 15.628906 9.765625 C 15.949219 9.765625 16.273438 9.765625 16.605469 9.765625 C 16.605469 9.445312 16.605469 9.121094 16.605469 8.789062 C 16.925781 8.789062 17.25 8.789062 17.582031 8.789062 C 17.582031 8.46875 17.582031 8.144531 17.582031 7.8125 C 17.902344 7.8125 18.226562 7.8125 18.558594 7.8125 C 18.558594 7.167969 18.558594 6.523438 18.558594 5.859375 C 18.878906 5.859375 19.203125 5.859375 19.535156 5.859375 C 19.535156 5.539062 19.535156 5.214844 19.535156 4.882812 Z M 19.535156 4.882812 "/>
<path style=" stroke:none;fill-rule:nonzero;fill:rgb(8.627451%,8.627451%,8.627451%);fill-opacity:1;" d="M 29.300781 12.699219 C 30.589844 12.699219 31.882812 12.699219 33.210938 12.699219 C 33.210938 13.019531 33.210938 13.34375 33.210938 13.675781 C 33.53125 13.675781 33.855469 13.675781 34.1875 13.675781 C 34.1875 13.996094 34.1875 14.320312 34.1875 14.652344 C 34.507812 14.652344 34.832031 14.652344 35.164062 14.652344 C 35.164062 14.972656 35.164062 15.296875 35.164062 15.628906 C 34.519531 15.628906 33.875 15.628906 33.210938 15.628906 C 33.210938 16.273438 33.210938 16.917969 33.210938 17.582031 C 33.53125 17.582031 33.855469 17.582031 34.1875 17.582031 C 34.1875 17.902344 34.1875 18.226562 34.1875 18.558594 C 33.21875 18.558594 32.253906 18.558594 31.253906 18.558594 C 31.253906 17.914062 31.253906 17.269531 31.253906 16.605469 C 30.933594 16.605469 30.609375 16.605469 30.277344 16.605469 C 30.277344 15.636719 30.277344 14.671875 30.277344 13.675781 C 29.957031 13.675781 29.632812 13.675781 29.300781 13.675781 C 29.300781 13.351562 29.300781 13.03125 29.300781 12.699219 Z M 29.300781 12.699219 "/>
<path style=" stroke:none;fill-rule:nonzero;fill:rgb(86.274511%,86.274511%,86.274511%);fill-opacity:1;" d="M 19.535156 37.117188 C 21.792969 37.117188 24.046875 37.117188 26.371094 37.117188 C 26.371094 37.4375 26.371094 37.761719 26.371094 38.09375 C 26.695312 38.09375 27.015625 38.09375 27.347656 38.09375 C 27.347656 39.058594 27.347656 40.027344 27.347656 41.023438 C 27.027344 41.023438 26.703125 41.023438 26.371094 41.023438 C 26.371094 41.34375 26.371094 41.667969 26.371094 42 C 26.050781 42 25.726562 42 25.394531 42 C 25.394531 41.355469 25.394531 40.710938 25.394531 40.046875 C 25.71875 40.046875 26.039062 40.046875 26.371094 40.046875 C 26.371094 39.722656 26.371094 39.402344 26.371094 39.070312 C 26.050781 39.070312 25.726562 39.070312 25.394531 39.070312 C 25.394531 38.746094 25.394531 38.425781 25.394531 38.09375 C 23.785156 38.09375 22.171875 38.09375 20.511719 38.09375 C 20.511719 38.414062 20.511719 38.738281 20.511719 39.070312 C 20.1875 39.070312 19.867188 39.070312 19.535156 39.070312 C 19.535156 39.390625 19.535156 39.714844 19.535156 40.046875 C 19.855469 40.046875 20.179688 40.046875 20.511719 40.046875 C 20.511719 40.691406 20.511719 41.335938 20.511719 42 C 20.1875 42 19.867188 42 19.535156 42 C 19.535156 41.675781 19.535156 41.355469 19.535156 41.023438 C 19.210938 41.023438 18.890625 41.023438 18.558594 41.023438 C 18.558594 40.054688 18.558594 39.089844 18.558594 38.09375 C 18.878906 38.09375 19.203125 38.09375 19.535156 38.09375 C 19.535156 37.769531 19.535156 37.449219 19.535156 37.117188 Z M 19.535156 37.117188 "/>
<path style=" stroke:none;fill-rule:nonzero;fill:rgb(8.627451%,8.627451%,8.627451%);fill-opacity:1;" d="M 12.699219 13.675781 C 13.34375 13.675781 13.988281 13.675781 14.652344 13.675781 C 14.652344 13.996094 14.652344 14.320312 14.652344 14.652344 C 14.972656 14.652344 15.296875 14.652344 15.628906 14.652344 C 15.628906 15.617188 15.628906 16.585938 15.628906 17.582031 C 15.949219 17.582031 16.273438 17.582031 16.605469 17.582031 C 16.605469 17.902344 16.605469 18.226562 16.605469 18.558594 C 16.28125 18.558594 15.960938 18.558594 15.628906 18.558594 C 15.628906 19.203125 15.628906 19.847656 15.628906 20.511719 C 14.984375 20.511719 14.339844 20.511719 13.675781 20.511719 C 13.675781 20.832031 13.675781 21.15625 13.675781 21.488281 C 13.351562 21.488281 13.03125 21.488281 12.699219 21.488281 C 12.699219 21.167969 12.699219 20.84375 12.699219 20.511719 C 12.375 20.511719 12.054688 20.511719 11.722656 20.511719 C 11.722656 20.1875 11.722656 19.867188 11.722656 19.535156 C 12.042969 19.535156 12.367188 19.535156 12.699219 19.535156 C 12.699219 18.890625 12.699219 18.246094 12.699219 17.582031 C 13.019531 17.582031 13.34375 17.582031 13.675781 17.582031 C 13.675781 17.902344 13.675781 18.226562 13.675781 18.558594 C 13.996094 18.558594 14.320312 18.558594 14.652344 18.558594 C 14.652344 17.589844 14.652344 16.625 14.652344 15.628906 C 14.007812 15.628906 13.363281 15.628906 12.699219 15.628906 C 12.699219 14.984375 12.699219 14.339844 12.699219 13.675781 Z M 12.699219 13.675781 "/>
<path style=" stroke:none;fill-rule:nonzero;fill:rgb(100%,100%,100%);fill-opacity:1;" d="M 23.441406 20.511719 C 26.019531 20.511719 28.597656 20.511719 31.253906 20.511719 C 31.253906 20.832031 31.253906 21.15625 31.253906 21.488281 C 30.933594 21.488281 30.609375 21.488281 30.277344 21.488281 C 30.277344 21.8125 30.277344 22.132812 30.277344 22.464844 C 28.34375 22.464844 26.410156 22.464844 24.417969 22.464844 C 24.417969 22.144531 24.417969 21.820312 24.417969 21.488281 C 24.097656 21.488281 23.773438 21.488281 23.441406 21.488281 C 23.441406 21.167969 23.441406 20.84375 23.441406 20.511719 Z M 23.441406 20.511719 "/>
<path style=" stroke:none;fill-rule:nonzero;fill:rgb(8.627451%,8.627451%,8.627451%);fill-opacity:1;" d="M 29.300781 12.699219 C 30.589844 12.699219 31.882812 12.699219 33.210938 12.699219 C 33.210938 13.019531 33.210938 13.34375 33.210938 13.675781 C 32.566406 13.675781 31.921875 13.675781 31.253906 13.675781 C 31.253906 14.640625 31.253906 15.609375 31.253906 16.605469 C 30.933594 16.605469 30.609375 16.605469 30.277344 16.605469 C 30.277344 15.636719 30.277344 14.671875 30.277344 13.675781 C 29.957031 13.675781 29.632812 13.675781 29.300781 13.675781 C 29.300781 13.351562 29.300781 13.03125 29.300781 12.699219 Z M 29.300781 12.699219 "/>
<path style=" stroke:none;fill-rule:nonzero;fill:rgb(8.627451%,8.627451%,8.627451%);fill-opacity:1;" d="M 26.371094 9.765625 C 27.015625 9.765625 27.660156 9.765625 28.324219 9.765625 C 28.324219 10.089844 28.324219 10.410156 28.324219 10.746094 C 28.648438 10.746094 28.96875 10.746094 29.300781 10.746094 C 29.300781 11.390625 29.300781 12.035156 29.300781 12.699219 C 28.980469 12.699219 28.65625 12.699219 28.324219 12.699219 C 28.324219 12.375 28.324219 12.054688 28.324219 11.722656 C 28.003906 11.722656 27.679688 11.722656 27.347656 11.722656 C 27.347656 12.042969 27.347656 12.367188 27.347656 12.699219 C 27.027344 12.699219 26.703125 12.699219 26.371094 12.699219 C 26.371094 11.730469 26.371094 10.765625 26.371094 9.765625 Z M 26.371094 9.765625 "/>
<path style=" stroke:none;fill-rule:nonzero;fill:rgb(8.627451%,8.627451%,8.627451%);fill-opacity:1;" d="M 31.253906 8.789062 C 31.578125 8.789062 31.902344 8.789062 32.234375 8.789062 C 32.234375 9.113281 32.234375 9.433594 32.234375 9.765625 C 32.554688 9.765625 32.878906 9.765625 33.210938 9.765625 C 33.210938 10.089844 33.210938 10.410156 33.210938 10.746094 C 33.855469 10.746094 34.5 10.746094 35.164062 10.746094 C 35.164062 11.066406 35.164062 11.390625 35.164062 11.722656 C 34.839844 11.722656 34.519531 11.722656 34.1875 11.722656 C 34.1875 12.042969 34.1875 12.367188 34.1875 12.699219 C 33.863281 12.699219 33.542969 12.699219 33.210938 12.699219 C 33.210938 12.375 33.210938 12.054688 33.210938 11.722656 C 32.886719 11.722656 32.566406 11.722656 32.234375 11.722656 C 32.234375 11.398438 32.234375 11.078125 32.234375 10.746094 C 31.910156 10.746094 31.589844 10.746094 31.253906 10.746094 C 31.253906 10.097656 31.253906 9.453125 31.253906 8.789062 Z M 31.253906 8.789062 "/>
<path style=" stroke:none;fill-rule:nonzero;fill:rgb(8.627451%,8.627451%,8.627451%);fill-opacity:1;" d="M 12.699219 7.8125 C 13.019531 7.8125 13.34375 7.8125 13.675781 7.8125 C 13.675781 9.101562 13.675781 10.390625 13.675781 11.722656 C 13.351562 11.722656 13.03125 11.722656 12.699219 11.722656 C 12.699219 12.042969 12.699219 12.367188 12.699219 12.699219 C 12.375 12.699219 12.054688 12.699219 11.722656 12.699219 C 11.722656 11.730469 11.722656 10.765625 11.722656 9.765625 C 12.042969 9.765625 12.367188 9.765625 12.699219 9.765625 C 12.699219 9.121094 12.699219 8.476562 12.699219 7.8125 Z M 12.699219 7.8125 "/>
<path style=" stroke:none;fill-rule:nonzero;fill:rgb(0%,0%,0%);fill-opacity:1;" d="M 31.253906 13.675781 C 32.222656 13.675781 33.191406 13.675781 34.1875 13.675781 C 34.1875 13.996094 34.1875 14.320312 34.1875 14.652344 C 34.507812 14.652344 34.832031 14.652344 35.164062 14.652344 C 35.164062 14.972656 35.164062 15.296875 35.164062 15.628906 C 34.519531 15.628906 33.875 15.628906 33.210938 15.628906 C 33.210938 15.304688 33.210938 14.984375 33.210938 14.652344 C 32.566406 14.652344 31.921875 14.652344 31.253906 14.652344 C 31.253906 14.328125 31.253906 14.007812 31.253906 13.675781 Z M 31.253906 13.675781 "/>
<path style=" stroke:none;fill-rule:nonzero;fill:rgb(17.647059%,50.196081%,54.901963%);fill-opacity:1;" d="M 30.277344 38.09375 C 30.601562 38.09375 30.921875 38.09375 31.253906 38.09375 C 31.253906 39.382812 31.253906 40.671875 31.253906 42 C 30.933594 42 30.609375 42 30.277344 42 C 30.277344 40.710938 30.277344 39.421875 30.277344 38.09375 Z M 30.277344 38.09375 "/>
<path style=" stroke:none;fill-rule:nonzero;fill:rgb(17.647059%,50.196081%,54.901963%);fill-opacity:1;" d="M 11.722656 38.09375 C 12.042969 38.09375 12.367188 38.09375 12.699219 38.09375 C 12.699219 39.382812 12.699219 40.671875 12.699219 42 C 12.375 42 12.054688 42 11.722656 42 C 11.722656 40.710938 11.722656 39.421875 11.722656 38.09375 Z M 11.722656 38.09375 "/>
<path style=" stroke:none;fill-rule:nonzero;fill:rgb(0%,0%,0%);fill-opacity:1;" d="M 31.253906 16.605469 C 31.578125 16.605469 31.902344 16.605469 32.234375 16.605469 C 32.234375 16.925781 32.234375 17.25 32.234375 17.582031 C 32.878906 17.582031 33.523438 17.582031 34.1875 17.582031 C 34.1875 17.902344 34.1875 18.226562 34.1875 18.558594 C 33.21875 18.558594 32.253906 18.558594 31.253906 18.558594 C 31.253906 17.914062 31.253906 17.269531 31.253906 16.605469 Z M 31.253906 16.605469 "/>
<path style=" stroke:none;fill-rule:nonzero;fill:rgb(0%,0%,0%);fill-opacity:1;" d="M 30.277344 14.652344 C 30.601562 14.652344 30.921875 14.652344 31.253906 14.652344 C 31.253906 15.296875 31.253906 15.941406 31.253906 16.605469 C 30.933594 16.605469 30.609375 16.605469 30.277344 16.605469 C 30.277344 15.960938 30.277344 15.316406 30.277344 14.652344 Z M 30.277344 14.652344 "/>
<path style=" stroke:none;fill-rule:nonzero;fill:rgb(8.627451%,8.627451%,8.627451%);fill-opacity:1;" d="M 27.347656 5.859375 C 27.992188 5.859375 28.636719 5.859375 29.300781 5.859375 C 29.300781 6.183594 29.300781 6.503906 29.300781 6.835938 C 28.65625 6.835938 28.011719 6.835938 27.347656 6.835938 C 27.347656 6.515625 27.347656 6.191406 27.347656 5.859375 Z M 27.347656 5.859375 "/>
<path style=" stroke:none;fill-rule:nonzero;fill:rgb(85.882354%,81.960785%,31.37255%);fill-opacity:1;" d="M 23.441406 39.070312 C 23.765625 39.070312 24.085938 39.070312 24.417969 39.070312 C 24.417969 39.390625 24.417969 39.714844 24.417969 40.046875 C 24.097656 40.046875 23.773438 40.046875 23.441406 40.046875 C 23.441406 39.722656 23.441406 39.402344 23.441406 39.070312 Z M 23.441406 39.070312 "/>
<path style=" stroke:none;fill-rule:nonzero;fill:rgb(0%,0%,0%);fill-opacity:1;" d="M 18.558594 20.511719 C 18.878906 20.511719 19.203125 20.511719 19.535156 20.511719 C 19.535156 20.832031 19.535156 21.15625 19.535156 21.488281 C 19.210938 21.488281 18.890625 21.488281 18.558594 21.488281 C 18.558594 21.167969 18.558594 20.84375 18.558594 20.511719 Z M 18.558594 20.511719 "/>
<path style=" stroke:none;fill-rule:nonzero;fill:rgb(8.627451%,8.627451%,8.627451%);fill-opacity:1;" d="M 15.628906 20.511719 C 15.949219 20.511719 16.273438 20.511719 16.605469 20.511719 C 16.605469 20.832031 16.605469 21.15625 16.605469 21.488281 C 16.28125 21.488281 15.960938 21.488281 15.628906 21.488281 C 15.628906 21.167969 15.628906 20.84375 15.628906 20.511719 Z M 15.628906 20.511719 "/>
<path style=" stroke:none;fill-rule:nonzero;fill:rgb(8.627451%,8.627451%,8.627451%);fill-opacity:1;" d="M 11.722656 15.628906 C 12.042969 15.628906 12.367188 15.628906 12.699219 15.628906 C 12.699219 15.949219 12.699219 16.273438 12.699219 16.605469 C 12.375 16.605469 12.054688 16.605469 11.722656 16.605469 C 11.722656 16.28125 11.722656 15.960938 11.722656 15.628906 Z M 11.722656 15.628906 "/>
<path style=" stroke:none;fill-rule:nonzero;fill:rgb(8.627451%,8.627451%,8.627451%);fill-opacity:1;" d="M 18.558594 14.652344 C 18.878906 14.652344 19.203125 14.652344 19.535156 14.652344 C 19.535156 14.972656 19.535156 15.296875 19.535156 15.628906 C 19.210938 15.628906 18.890625 15.628906 18.558594 15.628906 C 18.558594 15.304688 18.558594 14.984375 18.558594 14.652344 Z M 18.558594 14.652344 "/>
<path style=" stroke:none;fill-rule:nonzero;fill:rgb(0%,0%,0%);fill-opacity:1;" d="M 26.371094 11.722656 C 26.695312 11.722656 27.015625 11.722656 27.347656 11.722656 C 27.347656 12.042969 27.347656 12.367188 27.347656 12.699219 C 27.027344 12.699219 26.703125 12.699219 26.371094 12.699219 C 26.371094 12.375 26.371094 12.054688 26.371094 11.722656 Z M 26.371094 11.722656 "/>
<path style=" stroke:none;fill-rule:nonzero;fill:rgb(0%,0%,0%);fill-opacity:1;" d="M 33.210938 10.746094 C 33.53125 10.746094 33.855469 10.746094 34.1875 10.746094 C 34.1875 11.066406 34.1875 11.390625 34.1875 11.722656 C 33.863281 11.722656 33.542969 11.722656 33.210938 11.722656 C 33.210938 11.398438 33.210938 11.078125 33.210938 10.746094 Z M 33.210938 10.746094 "/>
<path style=" stroke:none;fill-rule:nonzero;fill:rgb(92.54902%,80.000001%,63.529414%);fill-opacity:1;" d="M 26.371094 10.746094 C 26.695312 10.746094 27.015625 10.746094 27.347656 10.746094 C 27.347656 11.066406 27.347656 11.390625 27.347656 11.722656 C 27.027344 11.722656 26.703125 11.722656 26.371094 11.722656 C 26.371094 11.398438 26.371094 11.078125 26.371094 10.746094 Z M 26.371094 10.746094 "/>
<path style=" stroke:none;fill-rule:nonzero;fill:rgb(8.627451%,8.627451%,8.627451%);fill-opacity:1;" d="M 35.164062 8.789062 C 35.484375 8.789062 35.808594 8.789062 36.140625 8.789062 C 36.140625 9.113281 36.140625 9.433594 36.140625 9.765625 C 35.816406 9.765625 35.496094 9.765625 35.164062 9.765625 C 35.164062 9.445312 35.164062 9.121094 35.164062 8.789062 Z M 35.164062 8.789062 "/>
<path style=" stroke:none;fill-rule:nonzero;fill:rgb(8.627451%,8.627451%,8.627451%);fill-opacity:1;" d="M 30.277344 7.8125 C 30.601562 7.8125 30.921875 7.8125 31.253906 7.8125 C 31.253906 8.136719 31.253906 8.457031 31.253906 8.789062 C 30.933594 8.789062 30.609375 8.789062 30.277344 8.789062 C 30.277344 8.46875 30.277344 8.144531 30.277344 7.8125 Z M 30.277344 7.8125 "/>
<path style=" stroke:none;fill-rule:nonzero;fill:rgb(8.627451%,8.627451%,8.627451%);fill-opacity:1;" d="M 29.300781 6.835938 C 29.625 6.835938 29.945312 6.835938 30.277344 6.835938 C 30.277344 7.160156 30.277344 7.480469 30.277344 7.8125 C 29.957031 7.8125 29.632812 7.8125 29.300781 7.8125 C 29.300781 7.492188 29.300781 7.167969 29.300781 6.835938 Z M 29.300781 6.835938 "/>
<path style=" stroke:none;fill-rule:nonzero;fill:rgb(8.627451%,8.627451%,8.627451%);fill-opacity:1;" d="M 13.675781 6.835938 C 13.996094 6.835938 14.320312 6.835938 14.652344 6.835938 C 14.652344 7.160156 14.652344 7.480469 14.652344 7.8125 C 14.328125 7.8125 14.007812 7.8125 13.675781 7.8125 C 13.675781 7.492188 13.675781 7.167969 13.675781 6.835938 Z M 13.675781 6.835938 "/>
<path style=" stroke:none;fill-rule:nonzero;fill:rgb(8.627451%,8.627451%,8.627451%);fill-opacity:1;" d="M 21.488281 3.90625 C 21.8125 3.90625 22.132812 3.90625 22.464844 3.90625 C 22.464844 4.230469 22.464844 4.550781 22.464844 4.882812 C 22.144531 4.882812 21.820312 4.882812 21.488281 4.882812 C 21.488281 4.5625 21.488281 4.238281 21.488281 3.90625 Z M 21.488281 3.90625 "/>
</g>
</svg>
