<?xml version="1.0" encoding="UTF-8"?>
<svg version="1.1" xmlns="http://www.w3.org/2000/svg" width="301" height="301">
<path d="M0 0 C25.41 0 50.82 0 77 0 C77 2.31 77 4.62 77 7 C79.31 7 81.62 7 84 7 C84 9.31 84 11.62 84 14 C90.93 14 97.86 14 105 14 C105 16.31 105 18.62 105 21 C109.62 21 114.24 21 119 21 C119 23.31 119 25.62 119 28 C121.31 28 123.62 28 126 28 C126 30.31 126 32.62 126 35 C128.31 35 130.62 35 133 35 C133 37.31 133 39.62 133 42 C137.62 42 142.24 42 147 42 C147 44.31 147 46.62 147 49 C140.07 49 133.14 49 126 49 C126 51.31 126 53.62 126 56 C130.62 56 135.24 56 140 56 C140 58.31 140 60.62 140 63 C137.69 63 135.38 63 133 63 C133 65.31 133 67.62 133 70 C130.69 70 128.38 70 126 70 C126 72.31 126 74.62 126 77 C128.31 77 130.62 77 133 77 C133 79.31 133 81.62 133 84 C135.31 84 137.62 84 140 84 C140 86.31 140 88.62 140 91 C135.38 91 130.76 91 126 91 C126 95.62 126 100.24 126 105 C128.31 105 130.62 105 133 105 C133 107.31 133 109.62 133 112 C128.38 112 123.76 112 119 112 C119 125.86 119 139.72 119 154 C107.45 154 95.9 154 84 154 C84 167.86 84 181.72 84 196 C100.17 196 116.34 196 133 196 C133 200.62 133 205.24 133 210 C139.93 210 146.86 210 154 210 C154 233.1 154 256.2 154 280 C75.46 280 -3.08 280 -84 280 C-84 256.9 -84 233.8 -84 210 C-77.07 210 -70.14 210 -63 210 C-63 205.38 -63 200.76 -63 196 C-58.38 196 -53.76 196 -49 196 C-49 172.9 -49 149.8 -49 126 C-46.69 126 -44.38 126 -42 126 C-42 98.28 -42 70.56 -42 42 C-39.69 42 -37.38 42 -35 42 C-35 37.38 -35 32.76 -35 28 C-32.69 28 -30.38 28 -28 28 C-28 23.38 -28 18.76 -28 14 C-23.38 14 -18.76 14 -14 14 C-14 11.69 -14 9.38 -14 7 C-9.38 7 -4.76 7 0 7 C0 4.69 0 2.38 0 0 Z " fill="#369AA9" transform="translate(112,21)"/>
<path d="M0 0 C9.24 0 18.48 0 28 0 C28 2.31 28 4.62 28 7 C30.31 7 32.62 7 35 7 C35 9.31 35 11.62 35 14 C37.31 14 39.62 14 42 14 C42 16.31 42 18.62 42 21 C44.31 21 46.62 21 49 21 C49 23.31 49 25.62 49 28 C51.31 28 53.62 28 56 28 C56 25.69 56 23.38 56 21 C58.31 21 60.62 21 63 21 C63 23.31 63 25.62 63 28 C65.31 28 67.62 28 70 28 C70 30.31 70 32.62 70 35 C72.31 35 74.62 35 77 35 C77 41.93 77 48.86 77 56 C79.31 56 81.62 56 84 56 C84 60.62 84 65.24 84 70 C86.31 70 88.62 70 91 70 C91 83.86 91 97.72 91 112 C79.45 112 67.9 112 56 112 C56 137.41 56 162.82 56 189 C35.21 189 14.42 189 -7 189 C-7 182.07 -7 175.14 -7 168 C-13.93 168 -20.86 168 -28 168 C-28 163.38 -28 158.76 -28 154 C-32.62 154 -37.24 154 -42 154 C-42 135.52 -42 117.04 -42 98 C-39.69 98 -37.38 98 -35 98 C-35 93.38 -35 88.76 -35 84 C-32.69 84 -30.38 84 -28 84 C-28 79.38 -28 74.76 -28 70 C-25.69 70 -23.38 70 -21 70 C-21 72.31 -21 74.62 -21 77 C-18.69 77 -16.38 77 -14 77 C-14 79.31 -14 81.62 -14 84 C-11.69 84 -9.38 84 -7 84 C-7 77.07 -7 70.14 -7 63 C-9.31 63 -11.62 63 -14 63 C-14 56.07 -14 49.14 -14 42 C-11.69 42 -9.38 42 -7 42 C-7 37.38 -7 32.76 -7 28 C-9.31 28 -11.62 28 -14 28 C-14 21.07 -14 14.14 -14 7 C-9.38 7 -4.76 7 0 7 C0 4.69 0 2.38 0 0 Z " fill="#ECCCA2" transform="translate(140,63)"/>
<path d="M0 0 C25.41 0 50.82 0 77 0 C77 2.31 77 4.62 77 7 C79.31 7 81.62 7 84 7 C84 9.31 84 11.62 84 14 C90.93 14 97.86 14 105 14 C105 16.31 105 18.62 105 21 C109.62 21 114.24 21 119 21 C119 23.31 119 25.62 119 28 C121.31 28 123.62 28 126 28 C126 30.31 126 32.62 126 35 C128.31 35 130.62 35 133 35 C133 37.31 133 39.62 133 42 C137.62 42 142.24 42 147 42 C147 44.31 147 46.62 147 49 C140.07 49 133.14 49 126 49 C126 51.31 126 53.62 126 56 C130.62 56 135.24 56 140 56 C140 58.31 140 60.62 140 63 C137.69 63 135.38 63 133 63 C133 65.31 133 67.62 133 70 C130.69 70 128.38 70 126 70 C126 72.31 126 74.62 126 77 C128.31 77 130.62 77 133 77 C133 79.31 133 81.62 133 84 C135.31 84 137.62 84 140 84 C140 86.31 140 88.62 140 91 C135.38 91 130.76 91 126 91 C126 95.62 126 100.24 126 105 C128.31 105 130.62 105 133 105 C133 107.31 133 109.62 133 112 C126.07 112 119.14 112 112 112 C112 107.38 112 102.76 112 98 C109.69 98 107.38 98 105 98 C105 91.07 105 84.14 105 77 C102.69 77 100.38 77 98 77 C98 74.69 98 72.38 98 70 C95.69 70 93.38 70 91 70 C91 67.69 91 65.38 91 63 C88.69 63 86.38 63 84 63 C84 65.31 84 67.62 84 70 C81.69 70 79.38 70 77 70 C77 67.69 77 65.38 77 63 C74.69 63 72.38 63 70 63 C70 60.69 70 58.38 70 56 C67.69 56 65.38 56 63 56 C63 53.69 63 51.38 63 49 C60.69 49 58.38 49 56 49 C56 46.69 56 44.38 56 42 C46.76 42 37.52 42 28 42 C28 44.31 28 46.62 28 49 C23.38 49 18.76 49 14 49 C14 55.93 14 62.86 14 70 C16.31 70 18.62 70 21 70 C21 74.62 21 79.24 21 84 C18.69 84 16.38 84 14 84 C14 90.93 14 97.86 14 105 C16.31 105 18.62 105 21 105 C21 111.93 21 118.86 21 126 C18.69 126 16.38 126 14 126 C14 123.69 14 121.38 14 119 C11.69 119 9.38 119 7 119 C7 116.69 7 114.38 7 112 C4.69 112 2.38 112 0 112 C0 116.62 0 121.24 0 126 C-2.31 126 -4.62 126 -7 126 C-7 130.62 -7 135.24 -7 140 C-9.31 140 -11.62 140 -14 140 C-14 158.48 -14 176.96 -14 196 C-25.55 196 -37.1 196 -49 196 C-49 172.9 -49 149.8 -49 126 C-46.69 126 -44.38 126 -42 126 C-42 98.28 -42 70.56 -42 42 C-39.69 42 -37.38 42 -35 42 C-35 37.38 -35 32.76 -35 28 C-32.69 28 -30.38 28 -28 28 C-28 23.38 -28 18.76 -28 14 C-23.38 14 -18.76 14 -14 14 C-14 11.69 -14 9.38 -14 7 C-9.38 7 -4.76 7 0 7 C0 4.69 0 2.38 0 0 Z " fill="#000000" transform="translate(112,21)"/>
<path d="M0 0 C20.79 0 41.58 0 63 0 C63 13.86 63 27.72 63 42 C42.21 42 21.42 42 0 42 C0 28.14 0 14.28 0 0 Z " fill="#C6AB88" transform="translate(133,175)"/>
<path d="M0 0 C16.17 0 32.34 0 49 0 C49 2.31 49 4.62 49 7 C51.31 7 53.62 7 56 7 C56 13.93 56 20.86 56 28 C53.69 28 51.38 28 49 28 C49 30.31 49 32.62 49 35 C32.83 35 16.66 35 0 35 C0 32.69 0 30.38 0 28 C-2.31 28 -4.62 28 -7 28 C-7 21.07 -7 14.14 -7 7 C-4.69 7 -2.38 7 0 7 C0 4.69 0 2.38 0 0 Z " fill="#369AA9" transform="translate(140,266)"/>
<path d="M0 0 C2.31 0 4.62 0 7 0 C7 4.62 7 9.24 7 14 C9.31 14 11.62 14 14 14 C14 16.31 14 18.62 14 21 C16.31 21 18.62 21 21 21 C21 18.69 21 16.38 21 14 C23.31 14 25.62 14 28 14 C28 11.69 28 9.38 28 7 C30.31 7 32.62 7 35 7 C35 11.62 35 16.24 35 21 C37.31 21 39.62 21 42 21 C42 27.93 42 34.86 42 42 C39.69 42 37.38 42 35 42 C35 39.69 35 37.38 35 35 C32.69 35 30.38 35 28 35 C28 32.69 28 30.38 28 28 C18.76 28 9.52 28 0 28 C0 30.31 0 32.62 0 35 C-4.62 35 -9.24 35 -14 35 C-14 41.93 -14 48.86 -14 56 C-11.69 56 -9.38 56 -7 56 C-7 60.62 -7 65.24 -7 70 C-11.62 70 -16.24 70 -21 70 C-21 63.07 -21 56.14 -21 49 C-23.31 49 -25.62 49 -28 49 C-28 44.38 -28 39.76 -28 35 C-25.69 35 -23.38 35 -21 35 C-21 32.69 -21 30.38 -21 28 C-18.69 28 -16.38 28 -14 28 C-14 25.69 -14 23.38 -14 21 C-11.69 21 -9.38 21 -7 21 C-7 16.38 -7 11.76 -7 7 C-4.69 7 -2.38 7 0 7 C0 4.69 0 2.38 0 0 Z " fill="#161616" transform="translate(140,35)"/>
<path d="M0 0 C9.24 0 18.48 0 28 0 C28 2.31 28 4.62 28 7 C30.31 7 32.62 7 35 7 C35 9.31 35 11.62 35 14 C37.31 14 39.62 14 42 14 C42 16.31 42 18.62 42 21 C37.38 21 32.76 21 28 21 C28 25.62 28 30.24 28 35 C30.31 35 32.62 35 35 35 C35 37.31 35 39.62 35 42 C28.07 42 21.14 42 14 42 C14 37.38 14 32.76 14 28 C11.69 28 9.38 28 7 28 C7 21.07 7 14.14 7 7 C4.69 7 2.38 7 0 7 C0 4.69 0 2.38 0 0 Z " fill="#161616" transform="translate(210,91)"/>
<path d="M0 0 C16.17 0 32.34 0 49 0 C49 2.31 49 4.62 49 7 C51.31 7 53.62 7 56 7 C56 13.93 56 20.86 56 28 C53.69 28 51.38 28 49 28 C49 30.31 49 32.62 49 35 C46.69 35 44.38 35 42 35 C42 30.38 42 25.76 42 21 C44.31 21 46.62 21 49 21 C49 18.69 49 16.38 49 14 C46.69 14 44.38 14 42 14 C42 11.69 42 9.38 42 7 C30.45 7 18.9 7 7 7 C7 9.31 7 11.62 7 14 C4.69 14 2.38 14 0 14 C0 16.31 0 18.62 0 21 C2.31 21 4.62 21 7 21 C7 25.62 7 30.24 7 35 C4.69 35 2.38 35 0 35 C0 32.69 0 30.38 0 28 C-2.31 28 -4.62 28 -7 28 C-7 21.07 -7 14.14 -7 7 C-4.69 7 -2.38 7 0 7 C0 4.69 0 2.38 0 0 Z " fill="#DCDCDC" transform="translate(140,266)"/>
<path d="M0 0 C4.62 0 9.24 0 14 0 C14 2.31 14 4.62 14 7 C16.31 7 18.62 7 21 7 C21 13.93 21 20.86 21 28 C23.31 28 25.62 28 28 28 C28 30.31 28 32.62 28 35 C25.69 35 23.38 35 21 35 C21 39.62 21 44.24 21 49 C16.38 49 11.76 49 7 49 C7 51.31 7 53.62 7 56 C4.69 56 2.38 56 0 56 C0 53.69 0 51.38 0 49 C-2.31 49 -4.62 49 -7 49 C-7 46.69 -7 44.38 -7 42 C-4.69 42 -2.38 42 0 42 C0 37.38 0 32.76 0 28 C2.31 28 4.62 28 7 28 C7 30.31 7 32.62 7 35 C9.31 35 11.62 35 14 35 C14 28.07 14 21.14 14 14 C9.38 14 4.76 14 0 14 C0 9.38 0 4.76 0 0 Z " fill="#161616" transform="translate(91,98)"/>
<path d="M0 0 C18.48 0 36.96 0 56 0 C56 2.31 56 4.62 56 7 C53.69 7 51.38 7 49 7 C49 9.31 49 11.62 49 14 C35.14 14 21.28 14 7 14 C7 11.69 7 9.38 7 7 C4.69 7 2.38 7 0 7 C0 4.69 0 2.38 0 0 Z " fill="#FFFFFF" transform="translate(168,147)"/>
<path d="M0 0 C9.24 0 18.48 0 28 0 C28 2.31 28 4.62 28 7 C23.38 7 18.76 7 14 7 C14 13.93 14 20.86 14 28 C11.69 28 9.38 28 7 28 C7 21.07 7 14.14 7 7 C4.69 7 2.38 7 0 7 C0 4.69 0 2.38 0 0 Z " fill="#161616" transform="translate(210,91)"/>
<path d="M0 0 C4.62 0 9.24 0 14 0 C14 2.31 14 4.62 14 7 C16.31 7 18.62 7 21 7 C21 11.62 21 16.24 21 21 C18.69 21 16.38 21 14 21 C14 18.69 14 16.38 14 14 C11.69 14 9.38 14 7 14 C7 16.31 7 18.62 7 21 C4.69 21 2.38 21 0 21 C0 14.07 0 7.14 0 0 Z " fill="#161616" transform="translate(189,70)"/>
<path d="M0 0 C2.31 0 4.62 0 7 0 C7 2.31 7 4.62 7 7 C9.31 7 11.62 7 14 7 C14 9.31 14 11.62 14 14 C18.62 14 23.24 14 28 14 C28 16.31 28 18.62 28 21 C25.69 21 23.38 21 21 21 C21 23.31 21 25.62 21 28 C18.69 28 16.38 28 14 28 C14 25.69 14 23.38 14 21 C11.69 21 9.38 21 7 21 C7 18.69 7 16.38 7 14 C4.69 14 2.38 14 0 14 C0 9.38 0 4.76 0 0 Z " fill="#161616" transform="translate(224,63)"/>
<path d="M0 0 C2.31 0 4.62 0 7 0 C7 9.24 7 18.48 7 28 C4.69 28 2.38 28 0 28 C0 30.31 0 32.62 0 35 C-2.31 35 -4.62 35 -7 35 C-7 28.07 -7 21.14 -7 14 C-4.69 14 -2.38 14 0 14 C0 9.38 0 4.76 0 0 Z " fill="#161616" transform="translate(91,56)"/>
<path d="M0 0 C6.93 0 13.86 0 21 0 C21 2.31 21 4.62 21 7 C23.31 7 25.62 7 28 7 C28 9.31 28 11.62 28 14 C23.38 14 18.76 14 14 14 C14 11.69 14 9.38 14 7 C9.38 7 4.76 7 0 7 C0 4.69 0 2.38 0 0 Z " fill="#000000" transform="translate(224,98)"/>
<path d="M0 0 C2.31 0 4.62 0 7 0 C7 9.24 7 18.48 7 28 C4.69 28 2.38 28 0 28 C0 18.76 0 9.52 0 0 Z " fill="#2D808C" transform="translate(217,273)"/>
<path d="M0 0 C2.31 0 4.62 0 7 0 C7 9.24 7 18.48 7 28 C4.69 28 2.38 28 0 28 C0 18.76 0 9.52 0 0 Z " fill="#2D808C" transform="translate(84,273)"/>
<path d="M0 0 C2.31 0 4.62 0 7 0 C7 2.31 7 4.62 7 7 C11.62 7 16.24 7 21 7 C21 9.31 21 11.62 21 14 C14.07 14 7.14 14 0 14 C0 9.38 0 4.76 0 0 Z " fill="#000000" transform="translate(224,119)"/>
<path d="M0 0 C2.31 0 4.62 0 7 0 C7 4.62 7 9.24 7 14 C4.69 14 2.38 14 0 14 C0 9.38 0 4.76 0 0 Z " fill="#000000" transform="translate(217,105)"/>
<path d="M0 0 C4.62 0 9.24 0 14 0 C14 2.31 14 4.62 14 7 C9.38 7 4.76 7 0 7 C0 4.69 0 2.38 0 0 Z " fill="#161616" transform="translate(196,42)"/>
<path d="M0 0 C2.31 0 4.62 0 7 0 C7 2.31 7 4.62 7 7 C4.69 7 2.38 7 0 7 C0 4.69 0 2.38 0 0 Z " fill="#DBD150" transform="translate(168,280)"/>
<path d="M0 0 C2.31 0 4.62 0 7 0 C7 2.31 7 4.62 7 7 C4.69 7 2.38 7 0 7 C0 4.69 0 2.38 0 0 Z " fill="#000000" transform="translate(133,147)"/>
<path d="M0 0 C2.31 0 4.62 0 7 0 C7 2.31 7 4.62 7 7 C4.69 7 2.38 7 0 7 C0 4.69 0 2.38 0 0 Z " fill="#161616" transform="translate(112,147)"/>
<path d="M0 0 C2.31 0 4.62 0 7 0 C7 2.31 7 4.62 7 7 C4.69 7 2.38 7 0 7 C0 4.69 0 2.38 0 0 Z " fill="#161616" transform="translate(84,112)"/>
<path d="M0 0 C2.31 0 4.62 0 7 0 C7 2.31 7 4.62 7 7 C4.69 7 2.38 7 0 7 C0 4.69 0 2.38 0 0 Z " fill="#161616" transform="translate(133,105)"/>
<path d="M0 0 C2.31 0 4.62 0 7 0 C7 2.31 7 4.62 7 7 C4.69 7 2.38 7 0 7 C0 4.69 0 2.38 0 0 Z " fill="#000000" transform="translate(189,84)"/>
<path d="M0 0 C2.31 0 4.62 0 7 0 C7 2.31 7 4.62 7 7 C4.69 7 2.38 7 0 7 C0 4.69 0 2.38 0 0 Z " fill="#000000" transform="translate(238,77)"/>
<path d="M0 0 C2.31 0 4.62 0 7 0 C7 2.31 7 4.62 7 7 C4.69 7 2.38 7 0 7 C0 4.69 0 2.38 0 0 Z " fill="#ECCCA2" transform="translate(189,77)"/>
<path d="M0 0 C2.31 0 4.62 0 7 0 C7 2.31 7 4.62 7 7 C4.69 7 2.38 7 0 7 C0 4.69 0 2.38 0 0 Z " fill="#161616" transform="translate(252,63)"/>
<path d="M0 0 C2.31 0 4.62 0 7 0 C7 2.31 7 4.62 7 7 C4.69 7 2.38 7 0 7 C0 4.69 0 2.38 0 0 Z " fill="#161616" transform="translate(217,56)"/>
<path d="M0 0 C2.31 0 4.62 0 7 0 C7 2.31 7 4.62 7 7 C4.69 7 2.38 7 0 7 C0 4.69 0 2.38 0 0 Z " fill="#161616" transform="translate(210,49)"/>
<path d="M0 0 C2.31 0 4.62 0 7 0 C7 2.31 7 4.62 7 7 C4.69 7 2.38 7 0 7 C0 4.69 0 2.38 0 0 Z " fill="#161616" transform="translate(98,49)"/>
<path d="M0 0 C2.31 0 4.62 0 7 0 C7 2.31 7 4.62 7 7 C4.69 7 2.38 7 0 7 C0 4.69 0 2.38 0 0 Z " fill="#161616" transform="translate(154,28)"/>
</svg>
