<?xml version="1.0" encoding="UTF-8"?>
<svg xmlns="http://www.w3.org/2000/svg" xmlns:xlink="http://www.w3.org/1999/xlink" width="42px" height="42px" viewBox="0 0 42 42" version="1.1">
<g id="surface1">
<path style="fill-rule:nonzero;fill:rgb(100%,100%,100%);fill-opacity:1;stroke-width:8;stroke-linecap:butt;stroke-linejoin:miter;stroke:rgb(0%,0%,0%);stroke-opacity:1;stroke-miterlimit:4;" d="M 54.910714 244.949777 L 55.133929 245.172991 C 57.03125 247.070312 59.430804 247.991071 62.081473 247.991071 L 90.680804 247.991071 C 93.945312 247.991071 97.209821 247.237723 99.553571 244.893973 C 101.032366 243.44308 102.315848 241.741071 102.957589 239.871652 L 114.425223 210.016741 L 149.665179 177.65067 L 185.184152 210.016741 L 196.651786 239.871652 C 197.293527 241.741071 198.577009 243.44308 200.055804 244.893973 C 202.399554 247.237723 205.664062 247.991071 208.928571 247.991071 L 237.527902 247.991071 C 240.178571 247.991071 242.578125 247.070312 244.475446 245.172991 L 244.698661 244.949777 C 246.316964 243.052455 247.293527 240.792411 247.293527 238.225446 C 247.293527 237.053571 247.18192 235.881696 246.902902 234.793527 L 246.847098 234.570312 L 246.763393 234.375 L 181.389509 57.700893 C 180.608259 54.966518 179.073661 52.622768 176.925223 50.697545 C 174.330357 48.409598 170.982143 47.488839 167.410714 47.488839 L 132.198661 47.488839 C 128.627232 47.488839 125.251116 48.409598 122.65625 50.697545 C 120.507812 52.622768 119.001116 54.966518 118.219866 57.700893 L 52.81808 234.375 L 52.734375 234.570312 L 52.706473 234.793527 C 52.427455 235.881696 52.287946 237.053571 52.287946 238.225446 C 52.287946 240.792411 53.292411 243.052455 54.910714 244.949777 Z M 152.371652 143.052455 L 149.665179 140.569196 L 146.958705 143.052455 L 130.524554 158.203125 L 149.776786 104.854911 L 168.889509 158.28683 Z M 152.371652 143.052455 " transform="matrix(0.14,0,0,0.14,0,0)"/>
</g>
</svg>
