<?xml version="1.0" encoding="UTF-8"?>
<svg xmlns="http://www.w3.org/2000/svg" xmlns:xlink="http://www.w3.org/1999/xlink" width="42px" height="42px" viewBox="0 0 42 42" version="1.1">
<g id="surface1">
<path style=" stroke:none;fill-rule:nonzero;fill:currentColor;fill-opacity:1;" d="M 8.691406 34.160156 C 8.460938 34.160156 8.265625 34.082031 8.113281 33.929688 C 7.960938 33.75 7.882812 33.558594 7.882812 33.351562 C 7.882812 33.222656 7.894531 33.109375 7.921875 33.003906 L 17.082031 8.25 C 17.160156 7.96875 17.316406 7.722656 17.546875 7.519531 C 17.777344 7.3125 18.097656 7.210938 18.507812 7.210938 L 23.4375 7.210938 C 23.847656 7.210938 24.167969 7.3125 24.398438 7.519531 C 24.628906 7.722656 24.785156 7.96875 24.859375 8.25 L 34.023438 33.003906 C 34.050781 33.109375 34.0625 33.222656 34.0625 33.351562 C 34.0625 33.558594 33.984375 33.75 33.832031 33.929688 C 33.675781 34.082031 33.484375 34.160156 33.253906 34.160156 L 29.25 34.160156 C 28.863281 34.160156 28.582031 34.070312 28.402344 33.890625 C 28.222656 33.710938 28.105469 33.542969 28.054688 33.390625 L 26.402344 29.078125 L 20.953125 24.113281 L 15.542969 29.078125 L 13.886719 33.390625 C 13.835938 33.542969 13.722656 33.710938 13.542969 33.890625 C 13.363281 34.070312 13.078125 34.160156 12.695312 34.160156 Z M 16.96875 24.113281 L 20.953125 20.441406 L 24.9375 24.113281 L 20.972656 13.023438 Z M 16.96875 24.113281 "/>
</g>
</svg>
